<?xml version="1.0" encoding="utf-8"?>
<!-- Generator: Adobe Illustrator 18.1.1, SVG Export Plug-In . SVG Version: 6.00 Build 0)  -->
<svg version="1.1" id="Layer_1" xmlns="http://www.w3.org/2000/svg" xmlns:xlink="http://www.w3.org/1999/xlink" x="0px" y="0px"
	 viewBox="0 0 100 100" enable-background="new 0 0 100 100" xml:space="preserve">
<path fill="#DF3034" d="M49.7,0C22.3,0,0,22.3,0,49.7c0,27.5,22.3,49.7,49.7,49.7s49.7-22.3,49.7-49.7C99.5,22.3,77.2,0,49.7,0z
	 M26.4,26.4h46.7c2.5,0,4.6,1.8,5.1,4.1L49.7,58.9L21.3,30.5C21.8,28.1,23.9,26.4,26.4,26.4z M21.2,34L21.2,34l16,16l-16,16V34z
	 M73.1,73.1H26.4c-2.3,0-4.3-1.5-5-3.7L39,51.8l9.8,9.8c0.5,0.5,1.3,0.5,1.8,0l10.1-10.1l0,0l0,0l0,0l17.4,17.4
	C77.6,71.4,75.6,73.1,73.1,73.1z M78.3,65.5L62.5,49.8L78.3,34V65.5z"/>
</svg>
