<?xml version="1.0" encoding="UTF-8" standalone="no"?>
<!-- Generator: Adobe Illustrator 18.1.1, SVG Export Plug-In . SVG Version: 6.00 Build 0)  -->

<svg
   xmlns:dc="http://purl.org/dc/elements/1.1/"
   xmlns:cc="http://creativecommons.org/ns#"
   xmlns:rdf="http://www.w3.org/1999/02/22-rdf-syntax-ns#"
   xmlns:svg="http://www.w3.org/2000/svg"
   xmlns="http://www.w3.org/2000/svg"
   xmlns:sodipodi="http://sodipodi.sourceforge.net/DTD/sodipodi-0.dtd"
   xmlns:inkscape="http://www.inkscape.org/namespaces/inkscape"
   version="1.1"
   id="Layer_1"
   x="0px"
   y="0px"
   viewBox="0 0 100 100"
   enable-background="new 0 0 100 100"
   xml:space="preserve"
   inkscape:version="0.91 r13725"
   sodipodi:docname="Message_empty-03.svg"><metadata
     id="metadata17"><rdf:RDF><cc:Work
         rdf:about=""><dc:format>image/svg+xml</dc:format><dc:type
           rdf:resource="http://purl.org/dc/dcmitype/StillImage" /><dc:title></dc:title></cc:Work></rdf:RDF></metadata><defs
     id="defs15"><inkscape:path-effect
       effect="sketch"
       id="path-effect3368"
       is_visible="true"
       nbiter_approxstrokes="5"
       strokelength="100"
       strokelength_rdm="0.3;1"
       strokeoverlap="0.3"
       strokeoverlap_rdm="0.3;1"
       ends_tolerance="0.1;1"
       parallel_offset="5;1"
       tremble_size="5;1"
       tremble_frequency="1"
       nbtangents="5"
       tgt_places_rdmness="1;1"
       tgtscale="10"
       tgtlength="100"
       tgtlength_rdm="0.3;1" /></defs><sodipodi:namedview
     pagecolor="#ffffff"
     bordercolor="#666666"
     borderopacity="1"
     objecttolerance="10"
     gridtolerance="10"
     guidetolerance="10"
     inkscape:pageopacity="0"
     inkscape:pageshadow="2"
     inkscape:window-width="1440"
     inkscape:window-height="808"
     id="namedview13"
     showgrid="false"
     inkscape:zoom="0.34"
     inkscape:cx="47.15262"
     inkscape:cy="50"
     inkscape:window-x="0"
     inkscape:window-y="0"
     inkscape:window-maximized="1"
     inkscape:current-layer="Layer_1" /><g
     id="g3"><g
       id="g5"><path
         fill="#BCBCBC"
         d="M70.7,24.2L28,12.4c-1.1-0.3-2.3,0.3-2.6,1.5c-0.3,1.1,0.3,2.3,1.5,2.6l42.7,11.8c0.2,0.1,0.4,0.1,0.6,0.1    c0.9,0,1.8-0.6,2-1.5C72.5,25.7,71.8,24.6,70.7,24.2z"
         id="path7" /><path
         fill="#BCBCBC"
         d="M67.1,34.6L24.4,22.8c-1.1-0.3-2.3,0.3-2.6,1.5c-0.3,1.1,0.3,2.3,1.5,2.6L66,38.7c0.2,0.1,0.4,0.1,0.6,0.1    c0.9,0,1.8-0.6,2-1.5C68.9,36.1,68.2,34.9,67.1,34.6z"
         id="path9" /><path
         fill="#BCBCBC"
         d="M86,41.6h-8.7l6.5-22c0.2-0.5,0.1-1.1-0.2-1.6c-0.3-0.5-0.7-0.9-1.3-1L21.5,0.1c-1.1-0.3-2.3,0.3-2.6,1.4    L9,34.7c0,0,0,0.1,0,0.1H1.4c-0.3,0-0.5,0.2-0.5,0.5v51.3c0,0.3,0.2,0.5,0.5,0.5h85.2V42.1C86.5,41.8,86.3,41.6,86,41.6z     M43.9,41.6L34,34.8c-0.1-0.1-0.2-0.1-0.3-0.1H13.4l9-30l56.8,15.7l-6.3,21.1c0,0,0,0,0,0.1H43.9z"
         id="path11" /></g></g><path
     style="fill:#ffffff;fill-opacity:1"
     d="m 79.225513,91.779165 c -0.25057,-0.05139 -0.686219,-0.306085 -0.96811,-0.565986 -0.447593,-0.412677 -0.512528,-0.698399 -0.512528,-2.255164 l 0,-1.782616 1.936218,0 1.936219,0 0,1.657743 c 0,1.097119 -0.114349,1.820999 -0.338125,2.140484 -0.386536,0.551857 -1.383634,0.942962 -2.053674,0.805539 z"
     id="path3355"
     inkscape:connector-curvature="0" /><g
     class="svg-msg-alert"
     inkscape:label="#g3376"
     transform="translate(-46.241458,57.225513)"><ellipse
       ry="25.626423"
       rx="26.1959"
       cy="15.831436"
       cx="120.27335"
       id="path3372"
       style="fill:#ffffff;fill-opacity:1" /><g
       inkscape:label="#g3363"
       transform="translate(-12.690626,-36.95031)"
       id="msg-notice"><path
         inkscape:connector-curvature="0"
         style="fill:#df3034"
         d="m 132.96398,33.781746 c -10.8,0 -19.7,8.5 -19.7,19 0,10.5 8.8,19 19.7,19 10.9,0 19.7,-8.5 19.7,-19 0,-10.5 -8.8,-19 -19.7,-19 z m 0,31.3 0,0 c -1.2,0 -2.1,-0.9 -2.1,-2.1 l 0,-1.8 c 0,-1.2 0.9,-2.1 2.1,-2.1 0,0 0,0 0,0 1.2,0 2.1,0.9 2.1,2.1 l 0,1.8 c 0,1.1 -0.9,2.1 -2.1,2.1 z m 2.2,-10.2 c 0,1.2 -0.9,2.1 -2.1,2.1 -1.2,0 -2.1,-0.9 -2.1,-2.1 l 0,-12.3 c 0,-1.2 0.9,-2.1 2.1,-2.1 1.2,0 2.1,0.9 2.1,2.1 l 0,12.3 z"
         id="path5" /><path
         style="fill:#ffffff;fill-opacity:1"
         d="m 131.71368,56.213422 -0.66584,-0.665849 0.003,-6.680392 c 0.002,-4.845444 0.0807,-6.832396 0.28474,-7.233781 0.38388,-0.754969 1.44404,-1.144551 2.40453,-0.8836 1.34966,0.366681 1.43633,0.903193 1.36044,8.42071 l -0.0667,6.609837 -0.63913,0.549462 c -0.88398,0.75997 -1.84679,0.718178 -2.68136,-0.116387 z"
         id="path3359"
         inkscape:connector-curvature="0" /><path
         style="fill:#ffffff;fill-opacity:1"
         d="m 132.52847,64.899894 c -0.25057,-0.05139 -0.68621,-0.306085 -0.96811,-0.565986 -0.44266,-0.408132 -0.51252,-0.702063 -0.51252,-2.156244 0,-1.949227 0.1803,-2.395613 1.12582,-2.787261 0.83712,-0.346747 1.66766,-0.166496 2.28473,0.495854 0.37392,0.401361 0.46188,0.803292 0.46188,2.110566 0,1.059141 -0.11635,1.780903 -0.33812,2.097532 -0.38654,0.551857 -1.38364,0.942962 -2.05368,0.805539 z"
         id="path3361"
         inkscape:connector-curvature="0" /></g></g></svg>
