<?xml version="1.0" encoding="utf-8"?>
<!-- Generator: Adobe Illustrator 18.1.1, SVG Export Plug-In . SVG Version: 6.00 Build 0)  -->
<svg version="1.1" id="Layer_1" xmlns="http://www.w3.org/2000/svg" xmlns:xlink="http://www.w3.org/1999/xlink" x="0px" y="0px"
	 viewBox="0 0 100 100" enable-background="new 0 0 100 100" xml:space="preserve">
<g>
	<g>
		<path fill="#BCBCBC" d="M70.7,24.2L28,12.4c-1.1-0.3-2.3,0.3-2.6,1.5c-0.3,1.1,0.3,2.3,1.5,2.6l42.7,11.8c0.2,0.1,0.4,0.1,0.6,0.1
			c0.9,0,1.8-0.6,2-1.5C72.5,25.7,71.8,24.6,70.7,24.2z"/>
		<path fill="#BCBCBC" d="M67.1,34.6L24.4,22.8c-1.1-0.3-2.3,0.3-2.6,1.5c-0.3,1.1,0.3,2.3,1.5,2.6L66,38.7c0.2,0.1,0.4,0.1,0.6,0.1
			c0.9,0,1.8-0.6,2-1.5C68.9,36.1,68.2,34.9,67.1,34.6z"/>
		<path fill="#BCBCBC" d="M86,41.6h-8.7l6.5-22c0.2-0.5,0.1-1.1-0.2-1.6c-0.3-0.5-0.7-0.9-1.3-1L21.5,0.1c-1.1-0.3-2.3,0.3-2.6,1.4
			L9,34.7c0,0,0,0.1,0,0.1H1.4c-0.3,0-0.5,0.2-0.5,0.5v51.3c0,0.3,0.2,0.5,0.5,0.5h85.2V42.1C86.5,41.8,86.3,41.6,86,41.6z
			 M43.9,41.6L34,34.8c-0.1-0.1-0.2-0.1-0.3-0.1H13.4l9-30l56.8,15.7l-6.3,21.1c0,0,0,0,0,0.1H43.9z"/>
	</g>
</g>
</svg>
