<?xml version="1.0" encoding="UTF-8" standalone="no"?>
<svg width="47px" height="25px" viewBox="0 0 47 25" version="1.1" xmlns="http://www.w3.org/2000/svg" xmlns:xlink="http://www.w3.org/1999/xlink" xmlns:sketch="http://www.bohemiancoding.com/sketch/ns">
    <!-- Generator: Sketch 3.3.3 (12081) - http://www.bohemiancoding.com/sketch -->
    <title>234 + 212 + Imported Layers</title>
    <desc>Created with Sketch.</desc>
    <defs></defs>
    <g id="Main-flow" stroke="none" stroke-width="1" fill="none" fill-rule="evenodd" sketch:type="MSPage">
        <g id="Claim-detail---ADVOCATE---open" sketch:type="MSArtboardGroup" transform="translate(-221.000000, -963.000000)">
            <g id="234-+-212-+-Imported-Layers" sketch:type="MSLayerGroup" transform="translate(220.000000, 963.000000)">
                <g id="234-+-212" transform="translate(23.000000, 0.000000)" sketch:type="MSShapeGroup">
                    <g id="212" transform="translate(0.128079, 0.384236)">
                        <path d="M4.61272917,3.84236453 C4.18726853,3.84236453 3.84236453,4.18346262 3.84236453,4.61083744 L3.84236453,4.61083744 C3.84236453,5.03525331 4.18007636,5.37931034 4.61272917,5.37931034 L19.9784038,5.37931034 C20.4038645,5.37931034 20.7487685,5.03821225 20.7487685,4.61083744 L20.7487685,4.61083744 C20.7487685,4.18642157 20.4110566,3.84236453 19.9784038,3.84236453 L4.61272917,3.84236453 L4.61272917,3.84236453 Z M4.61272917,6.91625616 C4.18726853,6.91625616 3.84236453,7.25735425 3.84236453,7.68472906 L3.84236453,7.68472906 C3.84236453,8.10914493 4.18007636,8.45320197 4.61272917,8.45320197 L19.9784038,8.45320197 C20.4038645,8.45320197 20.7487685,8.11210388 20.7487685,7.68472906 L20.7487685,7.68472906 C20.7487685,7.2603132 20.4110566,6.91625616 19.9784038,6.91625616 L4.61272917,6.91625616 L4.61272917,6.91625616 Z" id="Rectangle-865" fill="#2A2630"></path>
                        <path d="M0,1.5382855 L0,23.0528475 C0,23.9024191 0.682131925,24.591133 1.53364405,24.591133 L17.0143951,24.591133 C17.8614033,24.591133 19.0323556,24.1075533 19.6354026,23.5054237 L23.5037696,19.6429416 C24.1043038,19.0433209 24.591133,17.8747623 24.591133,17.0228281 L24.591133,1.53440419 C24.591133,0.686976156 23.9077595,0 23.0528475,0 L1.5382855,0 C0.688713879,0 0,0.68337354 0,1.5382855 L0,1.5382855 L0,1.5382855 Z M23.0528475,1.53694581 C23.0571265,1.53694581 23.0541872,17.0228281 23.0541872,17.0228281 C23.0541872,17.4647802 22.7309922,18.2426264 22.4178123,18.5553299 L18.5494454,22.417812 C18.2354057,22.731374 17.4553742,23.0541872 17.0143951,23.0541872 L1.53364405,23.0541872 C1.53426235,23.0541872 1.53694581,1.5382855 1.53694581,1.5382855 C1.53694581,1.53487681 23.0528475,1.53694581 23.0528475,1.53694581 L23.0528475,1.53694581 L23.0528475,1.53694581 Z M18.4433498,18.449905 C18.4433498,18.4457988 23.052875,18.4433498 23.052875,18.4433498 L24.591133,16.9064039 L23.0544831,16.9064039 L18.4430539,16.9064039 C17.5943856,16.9064039 16.9064039,17.5995284 16.9064039,18.449905 L16.9064039,24.5845778 L18.4433498,23.048943 L18.4433498,18.449905 L18.4433498,18.449905 Z" id="Rectangle-1027" fill="#444444"></path>
                    </g>
                </g>
                <path d="M19.8413953,11.6994444 L12.6084651,4.5 L7.39544186,4.5 L12.659814,9.74 L-3.5,9.74 L-3.5,13.6577778 L12.659814,13.6577778 L7.39544186,18.8988889 L12.6084651,18.8988889 L19.8413953,11.6994444" id="Imported-Layers" fill="#000000" sketch:type="MSShapeGroup" transform="translate(8.500000, 12.000000) rotate(-90.000000) translate(-8.500000, -12.000000) "></path>
            </g>
        </g>
    </g>
</svg>